<svg width="48" height="48" viewBox="0 0 48 48" fill="none" xmlns="http://www.w3.org/2000/svg">
<rect width="48" height="48" fill="white"/>
<mask id="path-1-inside-1" fill="white">
<path fill-rule="evenodd" clip-rule="evenodd" d="M18.4881 6C17.6048 6 16.8262 6.57934 16.5724 7.4253L15.5 11H8C3.58172 11 0 14.5817 0 19V33C0 37.4183 3.58172 41 8 41H40C44.4183 41 48 37.4183 48 33V19C48 14.5817 44.4183 11 40 11H32.5L31.4276 7.4253C31.1738 6.57934 30.3952 6 29.5119 6H18.4881Z"/>
</mask>
<path d="M16.5724 7.4253L19.4459 8.28735V8.28735L16.5724 7.4253ZM15.5 11V14H17.7321L18.3735 11.862L15.5 11ZM32.5 11L29.6265 11.862L30.2679 14H32.5V11ZM31.4276 7.4253L28.5541 8.28735L28.5541 8.28735L31.4276 7.4253ZM19.4459 8.28735C19.319 8.71033 18.9297 9 18.4881 9V3C16.28 3 14.3334 4.44834 13.6989 6.56326L19.4459 8.28735ZM18.3735 11.862L19.4459 8.28735L13.6989 6.56326L12.6265 10.138L18.3735 11.862ZM8 14H15.5V8H8V14ZM3 19C3 16.2386 5.23858 14 8 14V8C1.92487 8 -3 12.9249 -3 19H3ZM3 33V19H-3V33H3ZM8 38C5.23858 38 3 35.7614 3 33H-3C-3 39.0751 1.92487 44 8 44V38ZM40 38H8V44H40V38ZM45 33C45 35.7614 42.7614 38 40 38V44C46.0751 44 51 39.0751 51 33H45ZM45 19V33H51V19H45ZM40 14C42.7614 14 45 16.2386 45 19H51C51 12.9249 46.0751 8 40 8V14ZM32.5 14H40V8H32.5V14ZM28.5541 8.28735L29.6265 11.862L35.3735 10.138L34.3011 6.56326L28.5541 8.28735ZM29.5119 9C29.0703 9 28.681 8.71033 28.5541 8.28735L34.3011 6.56326C33.6666 4.44834 31.72 3 29.5119 3V9ZM18.4881 9H29.5119V3H18.4881V9Z" fill="#152C5B" mask="url(#path-1-inside-1)"/>
<circle cx="24" cy="26" r="6.5" stroke="#FF498B" stroke-width="3"/>
<path d="M40 17.0157L34 17" stroke="#152C5B" stroke-width="3" stroke-linecap="round"/>
</svg>
